<mxfile host="app.diagrams.net" modified="2021-06-24T03:54:51.878Z" agent="5.0 (Windows NT 10.0; Win64; x64) AppleWebKit/537.36 (KHTML, like Gecko) Chrome/91.0.4472.77 Safari/537.36" etag="LiN1MBcH6Xd8MlX3-jYP" version="14.8.0" type="github">
  <diagram id="C5RBs43oDa-KdzZeNtuy" name="Page-1">
    <mxGraphModel dx="782" dy="436" grid="1" gridSize="10" guides="1" tooltips="1" connect="1" arrows="1" fold="1" page="1" pageScale="1" pageWidth="827" pageHeight="1169" math="0" shadow="0">
      <root>
        <mxCell id="WIyWlLk6GJQsqaUBKTNV-0" />
        <mxCell id="WIyWlLk6GJQsqaUBKTNV-1" parent="WIyWlLk6GJQsqaUBKTNV-0" />
        <mxCell id="c8GXVTnnoMet3C_fBS5D-2" style="edgeStyle=orthogonalEdgeStyle;rounded=0;orthogonalLoop=1;jettySize=auto;html=1;entryX=0.5;entryY=0;entryDx=0;entryDy=0;" edge="1" parent="WIyWlLk6GJQsqaUBKTNV-1" source="c8GXVTnnoMet3C_fBS5D-0" target="c8GXVTnnoMet3C_fBS5D-1">
          <mxGeometry relative="1" as="geometry" />
        </mxCell>
        <mxCell id="c8GXVTnnoMet3C_fBS5D-0" value="初始化对象池" style="rounded=1;whiteSpace=wrap;html=1;" vertex="1" parent="WIyWlLk6GJQsqaUBKTNV-1">
          <mxGeometry x="260" y="120" width="120" height="60" as="geometry" />
        </mxCell>
        <mxCell id="c8GXVTnnoMet3C_fBS5D-5" style="edgeStyle=orthogonalEdgeStyle;rounded=0;orthogonalLoop=1;jettySize=auto;html=1;entryX=0.5;entryY=0;entryDx=0;entryDy=0;" edge="1" parent="WIyWlLk6GJQsqaUBKTNV-1" source="c8GXVTnnoMet3C_fBS5D-1" target="c8GXVTnnoMet3C_fBS5D-4">
          <mxGeometry relative="1" as="geometry" />
        </mxCell>
        <mxCell id="c8GXVTnnoMet3C_fBS5D-8" style="edgeStyle=orthogonalEdgeStyle;rounded=0;orthogonalLoop=1;jettySize=auto;html=1;entryX=1;entryY=0.5;entryDx=0;entryDy=0;" edge="1" parent="WIyWlLk6GJQsqaUBKTNV-1" source="c8GXVTnnoMet3C_fBS5D-1" target="c8GXVTnnoMet3C_fBS5D-7">
          <mxGeometry relative="1" as="geometry">
            <mxPoint x="430" y="600" as="targetPoint" />
            <Array as="points">
              <mxPoint x="418" y="295" />
              <mxPoint x="418" y="555" />
            </Array>
          </mxGeometry>
        </mxCell>
        <mxCell id="c8GXVTnnoMet3C_fBS5D-1" value="&lt;span&gt;注册异步接受客户端的事件&lt;/span&gt;" style="rhombus;whiteSpace=wrap;html=1;" vertex="1" parent="WIyWlLk6GJQsqaUBKTNV-1">
          <mxGeometry x="242.5" y="240" width="155" height="110" as="geometry" />
        </mxCell>
        <mxCell id="c8GXVTnnoMet3C_fBS5D-3" value="是" style="text;html=1;strokeColor=none;fillColor=none;align=center;verticalAlign=middle;whiteSpace=wrap;rounded=0;" vertex="1" parent="WIyWlLk6GJQsqaUBKTNV-1">
          <mxGeometry x="330" y="370" width="40" height="20" as="geometry" />
        </mxCell>
        <mxCell id="c8GXVTnnoMet3C_fBS5D-4" value="连接数据库" style="rounded=1;whiteSpace=wrap;html=1;" vertex="1" parent="WIyWlLk6GJQsqaUBKTNV-1">
          <mxGeometry x="260" y="410" width="120" height="60" as="geometry" />
        </mxCell>
        <mxCell id="c8GXVTnnoMet3C_fBS5D-14" style="edgeStyle=orthogonalEdgeStyle;rounded=0;orthogonalLoop=1;jettySize=auto;html=1;entryX=0.5;entryY=0;entryDx=0;entryDy=0;" edge="1" parent="WIyWlLk6GJQsqaUBKTNV-1" source="c8GXVTnnoMet3C_fBS5D-7" target="c8GXVTnnoMet3C_fBS5D-13">
          <mxGeometry relative="1" as="geometry" />
        </mxCell>
        <mxCell id="c8GXVTnnoMet3C_fBS5D-7" value="接收客户端" style="rounded=1;whiteSpace=wrap;html=1;" vertex="1" parent="WIyWlLk6GJQsqaUBKTNV-1">
          <mxGeometry x="260" y="525" width="120" height="60" as="geometry" />
        </mxCell>
        <mxCell id="c8GXVTnnoMet3C_fBS5D-9" value="否" style="text;html=1;strokeColor=none;fillColor=none;align=center;verticalAlign=middle;whiteSpace=wrap;rounded=0;" vertex="1" parent="WIyWlLk6GJQsqaUBKTNV-1">
          <mxGeometry x="430" y="440" width="40" height="20" as="geometry" />
        </mxCell>
        <mxCell id="c8GXVTnnoMet3C_fBS5D-10" value="异步事件连接到达后触发" style="text;html=1;strokeColor=none;fillColor=none;align=center;verticalAlign=middle;whiteSpace=wrap;rounded=0;" vertex="1" parent="WIyWlLk6GJQsqaUBKTNV-1">
          <mxGeometry x="210" y="545" width="40" height="20" as="geometry" />
        </mxCell>
        <mxCell id="c8GXVTnnoMet3C_fBS5D-11" value="再次注册接收客户端的异步事件" style="rounded=1;whiteSpace=wrap;html=1;" vertex="1" parent="WIyWlLk6GJQsqaUBKTNV-1">
          <mxGeometry x="260" y="790" width="120" height="60" as="geometry" />
        </mxCell>
        <mxCell id="c8GXVTnnoMet3C_fBS5D-13" value="" style="rounded=1;whiteSpace=wrap;html=1;" vertex="1" parent="WIyWlLk6GJQsqaUBKTNV-1">
          <mxGeometry x="260" y="670" width="120" height="60" as="geometry" />
        </mxCell>
      </root>
    </mxGraphModel>
  </diagram>
</mxfile>
